<?xml version="1.0" standalone="no"?>
<!DOCTYPE svg PUBLIC "-//W3C//DTD SVG 20010904//EN"
 "http://www.w3.org/TR/2001/REC-SVG-20010904/DTD/svg10.dtd">
<svg version="1.0" xmlns="http://www.w3.org/2000/svg"
 width="24.000000pt" height="24.000000pt" viewBox="0 0 24.000000 24.000000"
 preserveAspectRatio="xMidYMid meet">

<g transform="translate(0.000000,24.000000) scale(0.100000,-0.100000)"
fill="#000000" stroke="none">
<path d="M54 180 c-11 -50 -7 -72 18 -93 25 -21 15 -36 -12 -19 -31 19 -45 14
-25 -8 10 -11 26 -20 36 -20 9 0 19 -6 22 -12 6 -18 13 -8 20 29 5 27 3 32
-17 37 -27 7 -37 34 -27 72 6 24 11 26 63 28 l57 1 6 -38 c7 -39 -6 -67 -31
-67 -16 0 -20 -55 -4 -65 6 -3 10 4 10 16 0 12 11 32 25 45 25 23 28 43 16 98
-6 28 -7 29 -78 30 l-72 1 -7 -35z"/>
</g>
</svg>
