<?xml version="1.0" encoding="utf-8"?>
<!-- Generator: Adobe Illustrator 18.0.0, SVG Export Plug-In . SVG Version: 6.00 Build 0)  -->
<!DOCTYPE svg PUBLIC "-//W3C//DTD SVG 1.1//EN" "http://www.w3.org/Graphics/SVG/1.1/DTD/svg11.dtd">
<svg version="1.1" id="Layer_1" xmlns="http://www.w3.org/2000/svg" xmlns:xlink="http://www.w3.org/1999/xlink" x="0px" y="0px"
	 viewBox="0 0 64 64" enable-background="new 0 0 64 64" xml:space="preserve">
<g>
	<path d="M45.8,0H10C7.8,0,6,1.8,6,4v56c0,2.2,1.8,4,4,4h44c2.2,0,4-1.8,4-4V11.1L45.8,0z M47,6.5l3.8,3.5H47V6.5z M10,60V4h33v10
		h11l0,46H10z"/>
	<path d="M22.7,17.5c2.4,0,4.3-1.9,4.3-4.2S25,9,22.7,9s-4.3,1.9-4.3,4.2S20.3,17.5,22.7,17.5z M22.7,12c0.7,0,1.3,0.6,1.3,1.2
		s-0.6,1.2-1.3,1.2s-1.3-0.6-1.3-1.2S22,12,22.7,12z"/>
	<path d="M35.8,14.8l-6.7,8.5l-3.7-3.7l-10.5,13H49L35.8,14.8z M25.6,24l3.7,3.8l6.4-8l7.3,9.8H21.1L25.6,24z"/>
	<path d="M28.6,42.2L25,54h2.7l0.7-2.5H32l0.7,2.5h2.7l-3.6-11.8H28.6z M29.1,49.4l1.2-4.2l1.2,4.2H29.1z"/>
	<rect x="36.5" y="45.4" width="2.5" height="8.6"/>
	<rect x="36.5" y="42" width="2.4" height="2.2"/>
</g>
</svg>
