<?xml version="1.0" encoding="utf-8"?>
<!-- Generator: Adobe Illustrator 22.1.0, SVG Export Plug-In . SVG Version: 6.00 Build 0)  -->
<svg version="1.1" id="Layer_1" xmlns="http://www.w3.org/2000/svg" xmlns:xlink="http://www.w3.org/1999/xlink" x="0px" y="0px"
	 viewBox="0 0 64 64" style="enable-background:new 0 0 64 64;" xml:space="preserve">
<g>
	<path d="M45.8,0H10C7.8,0,6,1.8,6,4v56c0,2.2,1.8,4,4,4h44c2.2,0,4-1.8,4-4V11.1L45.8,0z M47,6.5l3.8,3.5H47V6.5z M10,60V4h33v10
		h11v46H10z"/>
	<path d="M22.7,17.5c2.4,0,4.3-1.9,4.3-4.2S25,9,22.7,9s-4.3,1.9-4.3,4.2S20.3,17.5,22.7,17.5z M22.7,12c0.7,0,1.3,0.6,1.3,1.2
		s-0.6,1.2-1.3,1.2s-1.3-0.6-1.3-1.2S22,12,22.7,12z"/>
	<path d="M35.8,14.8l-6.7,8.5l-3.7-3.7l-10.5,13H49L35.8,14.8z M25.6,24l3.7,3.8l6.4-8l7.3,9.8H21.1L25.6,24z"/>
	<g>
		<g>
			<path d="M14.5,45.5v9.4H13v-9.4H14.5z"/>
			<path d="M16,50c0-0.8,0-1.3-0.1-1.9h1.3l0.1,0.8h0c0.3-0.5,0.9-0.9,1.6-0.9c1.1,0,1.7,0.9,1.7,2.5v4.5h-1.5v-4.3
				c0-0.7-0.1-1.3-0.8-1.3c-0.4,0-0.7,0.3-0.8,0.8c0,0.2-0.1,0.4-0.1,0.6v4.2H16V50z"/>
			<path d="M22.2,45.6c0.4-0.1,1-0.2,1.7-0.2c1.1,0,1.9,0.3,2.4,0.8c0.8,0.7,1.2,1.9,1.2,3.8c0,2-0.5,3.3-1.2,4
				c-0.6,0.6-1.5,1-2.8,1c-0.5,0-1,0-1.4-0.1V45.6z M23.7,53.7c0.1,0,0.3,0,0.4,0c1,0,2-0.9,2-3.7c0-2.1-0.6-3.4-1.9-3.4
				c-0.1,0-0.3,0-0.4,0V53.7z"/>
			<path d="M29.9,51.9c0,1.5,0.7,1.9,1.5,1.9c0.5,0,0.9-0.1,1.2-0.2l0.2,1.1c-0.4,0.2-1.1,0.3-1.7,0.3c-1.8,0-2.7-1.3-2.7-3.4
				c0-2.3,1.1-3.6,2.5-3.6c1.4,0,2.2,1.3,2.2,3.1c0,0.4,0,0.6,0,0.8H29.9z M31.7,50.8c0-1.1-0.3-1.7-0.9-1.7c-0.6,0-0.9,0.9-1,1.7
				H31.7z"/>
			<path d="M34.1,53.5c0.3,0.2,0.7,0.4,1.2,0.4c0.5,0,0.9-0.3,0.9-0.8c0-0.4-0.2-0.7-0.8-1.1c-1-0.6-1.4-1.3-1.4-2
				c0-1.2,0.9-2,2.1-2c0.6,0,1,0.2,1.3,0.3L37,49.4c-0.3-0.2-0.6-0.3-0.9-0.3c-0.5,0-0.8,0.3-0.8,0.7c0,0.4,0.2,0.6,0.8,1
				c0.9,0.5,1.4,1.2,1.4,2.1c0,1.4-1,2.1-2.3,2.1c-0.5,0-1.2-0.2-1.5-0.4L34.1,53.5z"/>
			<path d="M40.1,46.3c0,0.5-0.3,0.9-0.8,0.9c-0.4,0-0.8-0.3-0.8-0.9c0-0.5,0.4-0.9,0.8-0.9C39.7,45.4,40.1,45.8,40.1,46.3z
				 M38.5,54.9v-6.8H40v6.8H38.5z"/>
			<path d="M46.1,48.1c0,0.6-0.1,1.2-0.1,2.1v3.9c0,1.6-0.3,2.4-0.8,2.9c-0.5,0.5-1.1,0.7-2,0.7c-0.6,0-1.2-0.1-1.6-0.3l0.3-1.2
				c0.3,0.2,0.8,0.3,1.3,0.3c0.9,0,1.3-0.6,1.3-1.8v-0.5h0c-0.2,0.5-0.7,0.7-1.3,0.7c-1.4,0-2.1-1.5-2.1-3.3c0-2.4,1.1-3.6,2.2-3.6
				c0.6,0,1,0.4,1.3,0.8h0l0.1-0.7H46.1z M44.5,50.5c0-0.2,0-0.4-0.1-0.5c-0.1-0.4-0.3-0.8-0.8-0.8c-0.7,0-1,1-1,2.3
				c0,1.5,0.4,2.2,1,2.2c0.3,0,0.6-0.1,0.8-0.7c0.1-0.2,0.1-0.4,0.1-0.6V50.5z"/>
			<path d="M47.4,50c0-0.8,0-1.3-0.1-1.9h1.3l0.1,0.8h0c0.3-0.5,0.9-0.9,1.6-0.9c1.1,0,1.7,0.9,1.7,2.5v4.5h-1.5v-4.3
				c0-0.7-0.1-1.3-0.8-1.3c-0.4,0-0.7,0.3-0.8,0.8c0,0.2-0.1,0.4-0.1,0.6v4.2h-1.5V50z"/>
		</g>
	</g>
</g>
</svg>
