<?xml version="1.0" encoding="utf-8"?>
<!-- Generator: Adobe Illustrator 22.1.0, SVG Export Plug-In . SVG Version: 6.00 Build 0)  -->
<svg version="1.1" id="Layer_1" xmlns="http://www.w3.org/2000/svg" xmlns:xlink="http://www.w3.org/1999/xlink" x="0px" y="0px"
	 viewBox="0 0 64 64" style="enable-background:new 0 0 64 64;" xml:space="preserve">
<g>
	<path d="M45.8,0H10C7.8,0,6,1.8,6,4v56c0,2.2,1.8,4,4,4h44c2.2,0,4-1.8,4-4V11.1L45.8,0z M47,6.5l3.8,3.5H47V6.5z M10,60V4h33v10
		h11v46H10z"/>
	<polygon points="26.1,31 21,25.5 26.1,20 23.9,18 17,25.5 23.9,33 	"/>
	<polygon points="40.1,33 47,25.5 40.1,18 37.9,20 43,25.5 37.9,31 	"/>
	<rect x="21.2" y="24.5" transform="matrix(0.3714 -0.9285 0.9285 0.3714 -4.0817 46.0647)" width="21.5" height="3"/>
	<g>
		<g>
			<path d="M18.3,42H21v7.7c0,3.4-1.7,4.7-4.3,4.7c-0.6,0-1.5-0.1-2-0.3l0.3-2.2c0.4,0.1,0.9,0.2,1.4,0.2c1.2,0,1.9-0.5,1.9-2.4V42z
				"/>
			<path d="M28.2,54.1l-0.2-0.9H28c-0.6,0.7-1.5,1.1-2.5,1.1c-1.8,0-2.8-1.3-2.8-2.7c0-2.3,2.1-3.4,5.2-3.4v-0.1
				c0-0.5-0.3-1.1-1.6-1.1c-0.9,0-1.8,0.3-2.4,0.7l-0.5-1.8c0.6-0.4,1.8-0.8,3.4-0.8c2.9,0,3.9,1.7,3.9,3.8V52c0,0.8,0,1.6,0.1,2.1
				H28.2z M27.9,50c-1.4,0-2.6,0.3-2.6,1.4c0,0.7,0.5,1.1,1.1,1.1c0.7,0,1.2-0.4,1.4-1c0-0.1,0.1-0.3,0.1-0.5V50z"/>
			<path d="M34.8,45.3l1.2,4.1c0.2,0.7,0.4,1.4,0.5,2.1h0.1c0.1-0.7,0.3-1.4,0.5-2.1l1.1-4.1H41l-3.3,8.8H35l-3.2-8.8H34.8z"/>
			<path d="M47.3,54.1l-0.2-0.9h-0.1c-0.6,0.7-1.5,1.1-2.5,1.1c-1.8,0-2.8-1.3-2.8-2.7c0-2.3,2.1-3.4,5.2-3.4v-0.1
				c0-0.5-0.3-1.1-1.6-1.1c-0.9,0-1.8,0.3-2.4,0.7l-0.5-1.8c0.6-0.4,1.8-0.8,3.4-0.8c2.9,0,3.9,1.7,3.9,3.8V52c0,0.8,0,1.6,0.1,2.1
				H47.3z M47,50c-1.4,0-2.6,0.3-2.6,1.4c0,0.7,0.5,1.1,1.1,1.1c0.7,0,1.2-0.4,1.4-1c0-0.1,0.1-0.3,0.1-0.5V50z"/>
		</g>
	</g>
</g>
</svg>
