<?xml version="1.0" encoding="utf-8"?>
<!-- Generator: Adobe Illustrator 22.1.0, SVG Export Plug-In . SVG Version: 6.00 Build 0)  -->
<svg version="1.1" id="Layer_1" xmlns="http://www.w3.org/2000/svg" xmlns:xlink="http://www.w3.org/1999/xlink" x="0px" y="0px"
	 viewBox="0 0 64 64" style="enable-background:new 0 0 64 64;" xml:space="preserve">
<g>
	<path d="M45.8,0H10C7.8,0,6,1.8,6,4v56c0,2.2,1.8,4,4,4h44c2.2,0,4-1.8,4-4V11.1L45.8,0z M47,6.5l3.8,3.5H47V6.5z M10,60V4h33v10
		h11v46H10z"/>
	<polygon points="26.1,31 21,25.5 26.1,20 23.9,18 17,25.5 23.9,33 	"/>
	<polygon points="40.1,33 47,25.5 40.1,18 37.9,20 43,25.5 37.9,31 	"/>
	<rect x="21.2" y="24.5" transform="matrix(0.3714 -0.9285 0.9285 0.3714 -4.0817 46.0647)" width="21.5" height="3"/>
	<g>
		<g>
			<path d="M13.6,42.7h1.8v6.7c0,2.7-1.3,3.6-3.1,3.6c-0.5,0-1-0.1-1.3-0.2l0.2-1.4c0.3,0.1,0.6,0.1,1,0.1c0.9,0,1.5-0.4,1.5-2.1
				V42.7z"/>
			<path d="M24.8,54.4c-1.2-0.4-2.4-0.8-3.5-1.3c-0.2-0.1-0.4-0.2-0.6-0.2c-2.2-0.1-4-1.8-4-5.1c0-3.1,1.7-5.3,4.3-5.3
				c2.7,0,4.2,2.3,4.2,5.1c0,2.5-1,4.1-2.3,4.7v0.1c0.8,0.3,1.7,0.5,2.5,0.6L24.8,54.4z M23.4,47.7c0-1.9-0.8-3.7-2.4-3.7
				c-1.6,0-2.4,1.8-2.4,3.8c0,2,0.8,3.7,2.4,3.7C22.6,51.5,23.4,49.8,23.4,47.7z"/>
			<path d="M32.7,50.7c0,0.8,0,1.6,0.1,2.2h-1.5l-0.1-1h0c-0.3,0.5-1,1.2-2.1,1.2c-1.3,0-2.3-0.9-2.3-3.1v-4.4h1.8v4.1
				c0,1.2,0.3,1.9,1.2,1.9c0.7,0,1.1-0.5,1.2-0.9c0.1-0.2,0.1-0.4,0.1-0.6v-4.5h1.8V50.7z"/>
			<path d="M35.8,49.7c0,1.4,1,2,2.1,2c0.8,0,1.3-0.1,1.8-0.3l0.3,1.2c-0.6,0.3-1.4,0.4-2.3,0.4c-2.2,0-3.5-1.4-3.5-3.7
				c0-2.1,1.2-3.9,3.3-3.9c2.1,0,2.9,1.8,2.9,3.5c0,0.4,0,0.6-0.1,0.8H35.8z M38.7,48.4c0-0.8-0.3-1.8-1.3-1.8c-1,0-1.4,1-1.5,1.8
				H38.7z"/>
			<path d="M41.7,47.8c0-0.9,0-1.6-0.1-2.3h1.5l0.1,1.3h0c0.3-0.9,1.1-1.5,1.8-1.5c0.2,0,0.3,0,0.4,0v1.7c-0.1,0-0.3,0-0.5,0
				c-0.8,0-1.4,0.5-1.5,1.4c0,0.2-0.1,0.4-0.1,0.6v3.8h-1.8V47.8z"/>
			<path d="M47.8,45.5l1.2,3.9c0.1,0.5,0.3,1,0.4,1.4h0c0.1-0.4,0.2-0.9,0.3-1.4l1-3.9h1.8l-1.7,5.1c-0.8,2.4-1.4,3.7-2.3,4.5
				c-0.7,0.7-1.4,0.9-1.8,1l-0.4-1.5c0.3-0.1,0.7-0.3,1-0.6c0.3-0.3,0.7-0.7,0.9-1.1c0.1-0.1,0.1-0.2,0.1-0.3c0-0.1,0-0.2-0.1-0.3
				l-2.5-6.7H47.8z"/>
		</g>
	</g>
</g>
</svg>
