<?xml version="1.0" encoding="utf-8"?>
<!-- Generator: Adobe Illustrator 22.1.0, SVG Export Plug-In . SVG Version: 6.00 Build 0)  -->
<svg version="1.1" id="Layer_1" xmlns="http://www.w3.org/2000/svg" xmlns:xlink="http://www.w3.org/1999/xlink" x="0px" y="0px"
	 viewBox="0 0 64 64" style="enable-background:new 0 0 64 64;" xml:space="preserve">
<g>
	<path d="M45.8,0H10C7.8,0,6,1.8,6,4v56c0,2.2,1.8,4,4,4h44c2.2,0,4-1.8,4-4V11.1L45.8,0z M47,6.5l3.8,3.5H47V6.5z M10,60V4h33v10
		h11v46H10z"/>
	<g>
		<g>
			<path d="M19,45.6c0.5-0.1,1.1-0.2,1.8-0.2c1,0,1.8,0.2,2.4,0.7c0.5,0.5,0.8,1.2,0.8,2c0,1-0.3,1.6-0.7,2.1c-0.6,0.7-1.5,1-2.3,1
				c-0.2,0-0.3,0-0.4,0v3.7H19V45.6z M20.5,50c0.1,0,0.2,0,0.4,0c1,0,1.5-0.7,1.5-1.8c0-0.9-0.4-1.6-1.4-1.6c-0.2,0-0.4,0-0.5,0.1
				V50z"/>
			<path d="M24.9,45.2h1.5v3.6h0c0.2-0.2,0.4-0.4,0.6-0.6c0.3-0.2,0.6-0.2,0.9-0.2c1.1,0,1.7,0.9,1.7,2.6v4.3h-1.5v-4.3
				c0-0.7-0.2-1.4-0.8-1.4c-0.4,0-0.7,0.3-0.9,0.8c0,0.1-0.1,0.4-0.1,0.5v4.3h-1.5V45.2z"/>
			<path d="M35.6,51.5c0,2.8-1.4,3.5-2.5,3.5c-1.4,0-2.4-1.2-2.4-3.5c0-2.5,1.2-3.5,2.5-3.5C34.6,48,35.6,49.2,35.6,51.5z
				 M32.2,51.5c0,1.1,0.2,2.4,1,2.4c0.7,0,0.9-1.3,0.9-2.4c0-1-0.2-2.4-0.9-2.4C32.4,49.1,32.2,50.5,32.2,51.5z"/>
			<path d="M38.5,46.2v1.8h1.3v1.1h-1.3v3.5c0,0.8,0.3,1,0.7,1c0.2,0,0.3,0,0.5,0l0,1.2c-0.2,0.1-0.6,0.1-1,0.1
				c-0.5,0-0.9-0.1-1.2-0.4c-0.3-0.3-0.5-0.8-0.5-1.8v-3.6h-0.8v-1.1H37v-1.4L38.5,46.2z"/>
			<path d="M45.4,51.5c0,2.8-1.4,3.5-2.5,3.5c-1.4,0-2.4-1.2-2.4-3.5c0-2.5,1.2-3.5,2.5-3.5C44.4,48,45.4,49.2,45.4,51.5z M42,51.5
				c0,1.1,0.2,2.4,1,2.4c0.7,0,0.9-1.3,0.9-2.4c0-1-0.2-2.4-0.9-2.4C42.1,49.1,42,50.5,42,51.5z"/>
		</g>
	</g>
</g>
<g>
	<circle cx="33.2" cy="28.3" r="4.1"/>
	<path d="M42.6,20.1h-3.3l-2.6-3.3c-0.2-0.2-0.4-0.3-0.7-0.3h-5.7c-0.3,0-0.5,0.1-0.7,0.3l-2.6,3.3c0,0-1.3,0-2.4,0v-0.8
		c0-0.4-0.4-0.8-0.8-0.8h-2.4c-0.4,0-0.8,0.4-0.8,0.8v0.8c-1.1,0-2,0.9-2,2v13c0,1.1,0.9,2,2,2h22c1.1,0,2-0.9,2-2v-13
		C44.6,21,43.7,20.1,42.6,20.1z M33.2,34.8c-3.6,0-6.5-2.9-6.5-6.5s2.9-6.5,6.5-6.5c3.6,0,6.5,2.9,6.5,6.5S36.8,34.8,33.2,34.8z"/>
</g>
</svg>
