<?xml version="1.0" encoding="utf-8"?>
<!-- Generator: Adobe Illustrator 18.0.0, SVG Export Plug-In . SVG Version: 6.00 Build 0)  -->
<!DOCTYPE svg PUBLIC "-//W3C//DTD SVG 1.1//EN" "http://www.w3.org/Graphics/SVG/1.1/DTD/svg11.dtd">
<svg version="1.1" id="Layer_1" xmlns="http://www.w3.org/2000/svg" xmlns:xlink="http://www.w3.org/1999/xlink" x="0px" y="0px"
	 viewBox="0 0 64 64" enable-background="new 0 0 64 64" xml:space="preserve">
<g>
	<path d="M45.8,0H10C7.8,0,6,1.8,6,4v56c0,2.2,1.8,4,4,4h44c2.2,0,4-1.8,4-4V11.1L45.8,0z M47,6.5l3.8,3.5H47V6.5z M10,60V4h33v10
		h11l0,46H10z"/>
	<path d="M22.7,17.5c2.4,0,4.3-1.9,4.3-4.2S25,9,22.7,9s-4.3,1.9-4.3,4.2S20.3,17.5,22.7,17.5z M22.7,12c0.7,0,1.3,0.6,1.3,1.2
		s-0.6,1.2-1.3,1.2s-1.3-0.6-1.3-1.2S21.9,12,22.7,12z"/>
	<path d="M35.8,14.8l-6.7,8.5l-3.7-3.7l-10.5,13H49L35.8,14.8z M25.6,24l3.7,3.8l6.4-8l7.3,9.8H21.1L25.6,24z"/>
	<path d="M27,42.8c-0.4-0.3-0.9-0.5-1.5-0.6S24.4,42,23.7,42H19v11.8h2.8v-4.6h2c1.5,0,2.6-0.3,3.4-0.9c0.8-0.6,1.2-1.5,1.2-2.7
		c0-0.7-0.1-1.2-0.4-1.7C27.8,43.5,27.4,43.1,27,42.8z M25.4,46.4c-0.1,0.2-0.3,0.3-0.5,0.4s-0.4,0.2-0.7,0.2
		c-0.2,0-0.5,0.1-0.8,0.1h-1.8v-2.9h1.8c0.8,0,1.3,0.1,1.6,0.3c0.2,0.1,0.3,0.2,0.3,0.4c0.1,0.2,0.1,0.4,0.1,0.7
		C25.6,45.9,25.5,46.2,25.4,46.4z"/>
	<path d="M34.5,49.1c-0.3-0.1-0.6-0.3-0.9-0.4c-0.3-0.1-0.6-0.2-0.9-0.3c-0.3-0.1-0.6-0.2-0.9-0.4c-0.3-0.1-0.4-0.3-0.4-0.5
		c0-0.3,0.1-0.4,0.3-0.5c0.2-0.1,0.5-0.1,0.7-0.1c0.3,0,0.6,0.1,0.9,0.3s0.5,0.4,0.7,0.6l1.6-1.3c-0.5-0.5-1-0.9-1.5-1.1
		c-0.5-0.2-1.2-0.3-1.9-0.3c-0.4,0-0.8,0.1-1.2,0.2c-0.4,0.1-0.7,0.3-1,0.5c-0.3,0.2-0.5,0.5-0.7,0.8c-0.2,0.3-0.3,0.7-0.3,1.1
		c0,0.8,0.3,1.4,0.8,1.8c0.6,0.4,1.2,0.7,1.8,0.9c0.4,0.1,0.7,0.2,0.9,0.3c0.2,0.1,0.4,0.2,0.6,0.3c0.2,0.1,0.3,0.3,0.3,0.5
		c0,0.1,0,0.3-0.1,0.4c-0.1,0.1-0.2,0.2-0.3,0.2c-0.1,0.1-0.2,0.1-0.4,0.1c-0.1,0-0.3,0-0.4,0c-0.2,0-0.4,0-0.6-0.1
		c-0.2-0.1-0.4-0.2-0.5-0.3c-0.2-0.1-0.3-0.3-0.5-0.4c-0.1-0.1-0.3-0.3-0.4-0.5l-1.7,1.2c0.3,0.4,0.6,0.7,0.9,0.9
		c0.3,0.2,0.6,0.4,0.9,0.6c0.6,0.3,1.3,0.4,1.9,0.4c1,0,1.8-0.2,2.5-0.7c0.7-0.5,1-1.1,1-1.8c0-0.7-0.2-1.3-0.6-1.8
		C35,49.4,34.8,49.2,34.5,49.1z"/>
	<path d="M42.5,45.8c-0.3-0.2-0.6-0.4-1-0.5s-0.7-0.2-1.1-0.2c-1.1,0-2,0.4-2.7,1.2c-0.7,0.8-1.1,1.8-1.1,3c0,1.4,0.3,2.5,1,3.4
		c0.7,0.9,1.6,1.3,2.8,1.3c0.5,0,0.9-0.1,1.2-0.2c0.4-0.2,0.7-0.4,1.1-0.6l0.1,0.7H45V42h-2.5V45.8z M42.5,51.4
		c-0.2,0.2-0.4,0.3-0.7,0.5C41.6,52,41.3,52,41,52c-0.4,0-0.7-0.1-0.9-0.2c-0.2-0.2-0.4-0.4-0.6-0.6c-0.1-0.2-0.2-0.5-0.3-0.8
		c0-0.3-0.1-0.6-0.1-0.9c0-0.3,0-0.6,0.1-0.8c0-0.3,0.1-0.6,0.3-0.8c0.1-0.2,0.3-0.4,0.6-0.6c0.2-0.2,0.5-0.2,0.9-0.2
		c0.3,0,0.5,0.1,0.8,0.2c0.3,0.1,0.5,0.3,0.7,0.4V51.4z"/>
</g>
</svg>
