<?xml version="1.0" encoding="utf-8"?>
<!-- Generator: Adobe Illustrator 22.1.0, SVG Export Plug-In . SVG Version: 6.00 Build 0)  -->
<svg version="1.1" id="Layer_1" xmlns="http://www.w3.org/2000/svg" xmlns:xlink="http://www.w3.org/1999/xlink" x="0px" y="0px"
	 viewBox="0 0 64 64" style="enable-background:new 0 0 64 64;" xml:space="preserve">
<g>
	<path d="M45.8,0H10C7.8,0,6,1.8,6,4v56c0,2.2,1.8,4,4,4h44c2.2,0,4-1.8,4-4V11.1L45.8,0z M47,6.5l3.8,3.5H47V6.5z M10,60V4h33v10
		h11v46H10z"/>
	<polygon points="26.1,31 21,25.5 26.1,20 23.9,18 17,25.5 23.9,33 	"/>
	<polygon points="40.1,33 47,25.5 40.1,18 37.9,20 43,25.5 37.9,31 	"/>
	<rect x="21.2" y="24.5" transform="matrix(0.3714 -0.9285 0.9285 0.3714 -4.0817 46.0647)" width="21.5" height="3"/>
	<g>
		<g>
			<path d="M18.8,54.1L14.9,42h3l1.5,5.1c0.4,1.4,0.8,2.8,1.1,4.3h0c0.3-1.5,0.7-2.9,1.1-4.3l1.5-5.2h2.9L22,54.1H18.8z"/>
			<path d="M27.4,42.2c0.7-0.1,2.2-0.3,3.5-0.3c1.7,0,2.7,0.2,3.6,0.7C35.4,43,36,43.9,36,45c0,1.1-0.6,2.1-2,2.6v0
				c1.4,0.4,2.4,1.4,2.4,3c0,1.1-0.5,2-1.3,2.6c-0.9,0.7-2.4,1.1-4.8,1.1c-1.4,0-2.4-0.1-3-0.2V42.2z M30.1,46.8H31
				c1.5,0,2.2-0.6,2.2-1.5c0-0.9-0.7-1.4-1.9-1.4c-0.6,0-0.9,0-1.2,0.1V46.8z M30.1,52.2c0.3,0,0.6,0,1.1,0c1.2,0,2.3-0.5,2.3-1.8
				c0-1.2-1.1-1.7-2.5-1.7h-0.9V52.2z"/>
			<path d="M41.1,51l-0.9,3.1h-2.8L41.1,42h3.6l3.8,12.1h-3L44.6,51H41.1z M44.2,49l-0.8-2.6c-0.2-0.7-0.4-1.6-0.6-2.3h0
				c-0.2,0.7-0.4,1.6-0.6,2.3L41.5,49H44.2z"/>
		</g>
	</g>
</g>
</svg>
