<?xml version="1.0" encoding="utf-8"?>
<!-- Generator: Adobe Illustrator 22.1.0, SVG Export Plug-In . SVG Version: 6.00 Build 0)  -->
<svg version="1.1" id="Layer_1" xmlns="http://www.w3.org/2000/svg" xmlns:xlink="http://www.w3.org/1999/xlink" x="0px" y="0px"
	 viewBox="0 0 64 64" style="enable-background:new 0 0 64 64;" xml:space="preserve">
<g>
	<path d="M45.8,0H10C7.8,0,6,1.8,6,4v56c0,2.2,1.8,4,4,4h44c2.2,0,4-1.8,4-4V11.1L45.8,0z M47,6.5l3.8,3.5H47V6.5z M10,60V4h33v10
		h11v46H10z"/>
	<path d="M22.7,17.5c2.4,0,4.3-1.9,4.3-4.2S25,9,22.7,9s-4.3,1.9-4.3,4.2S20.3,17.5,22.7,17.5z M22.7,12c0.7,0,1.3,0.6,1.3,1.2
		s-0.6,1.2-1.3,1.2s-1.3-0.6-1.3-1.2S22,12,22.7,12z"/>
	<path d="M35.8,14.8l-6.7,8.5l-3.7-3.7l-10.5,13H49L35.8,14.8z M25.6,24l3.7,3.8l6.4-8l7.3,9.8H21.1L25.6,24z"/>
	<g>
		<g>
			<path d="M29,54.9l-1.1-2.2c-0.4-0.9-0.7-1.5-1.1-2.2h0c-0.3,0.7-0.6,1.3-0.9,2.2l-1,2.2h-3.1l3.5-6.1l-3.4-6H25l1.1,2.2
				c0.4,0.7,0.6,1.3,0.9,2h0c0.3-0.8,0.5-1.3,0.8-2l1-2.2H32l-3.4,5.9l3.6,6.2H29z"/>
			<path d="M33.7,42.9c1-0.2,2.3-0.3,3.7-0.3c2.3,0,3.8,0.4,5,1.3c1.3,0.9,2.1,2.4,2.1,4.6c0,2.3-0.8,3.9-2,4.9
				c-1.3,1.1-3.2,1.6-5.6,1.6c-1.4,0-2.4-0.1-3.1-0.2V42.9z M36.4,52.8c0.2,0,0.6,0,1,0c2.5,0,4.1-1.4,4.1-4.3
				c0-2.5-1.5-3.8-3.8-3.8c-0.6,0-1,0.1-1.2,0.1V52.8z"/>
		</g>
	</g>
</g>
</svg>
