<svg width="16" height="17" viewBox="0 0 16 17" fill="none" xmlns="http://www.w3.org/2000/svg">
<path d="M1.3335 2.5H5.3335C6.04074 2.5 6.71902 2.78095 7.21911 3.28105C7.71921 3.78115 8.00016 4.45942 8.00016 5.16667V14.5C8.00016 13.9696 7.78945 13.4609 7.41438 13.0858C7.0393 12.7107 6.5306 12.5 6.00016 12.5H1.3335V2.5Z" stroke="#D6D6D6" stroke-linecap="round" stroke-linejoin="round"/>
<path d="M14.6667 2.5H10.6667C9.95942 2.5 9.28115 2.78095 8.78105 3.28105C8.28095 3.78115 8 4.45942 8 5.16667V14.5C8 13.9696 8.21071 13.4609 8.58579 13.0858C8.96086 12.7107 9.46957 12.5 10 12.5H14.6667V2.5Z" stroke="#D6D6D6" stroke-linecap="round" stroke-linejoin="round"/>
</svg>
