<svg width="16" height="17" viewBox="0 0 16 17" fill="none" xmlns="http://www.w3.org/2000/svg">
<path d="M9.7999 4.70015C9.67775 4.82477 9.60933 4.99231 9.60933 5.16682C9.60933 5.34132 9.67775 5.50886 9.7999 5.63348L10.8666 6.70015C10.9912 6.8223 11.1587 6.89072 11.3332 6.89072C11.5077 6.89072 11.6753 6.8223 11.7999 6.70015L14.3132 4.18682C14.6485 4.92761 14.75 5.75297 14.6042 6.55291C14.4585 7.35285 14.0724 8.08938 13.4974 8.66434C12.9225 9.23929 12.1859 9.62537 11.386 9.77112C10.5861 9.91687 9.7607 9.81537 9.0199 9.48015L4.41324 14.0868C4.14802 14.352 3.78831 14.501 3.41324 14.501C3.03816 14.501 2.67845 14.352 2.41324 14.0868C2.14802 13.8216 1.99902 13.4619 1.99902 13.0868C1.99902 12.7117 2.14802 12.352 2.41324 12.0868L7.0199 7.48015C6.68468 6.73936 6.58318 5.91399 6.72893 5.11405C6.87468 4.31411 7.26076 3.57759 7.83572 3.00263C8.41067 2.42767 9.1472 2.0416 9.94714 1.89584C10.7471 1.75009 11.5724 1.85159 12.3132 2.18682L9.80657 4.69348L9.7999 4.70015Z" stroke="#D6D6D6" stroke-linecap="round" stroke-linejoin="round"/>
</svg>
